<svg width="30" height="30" viewBox="0 0 30 30" fill="none" xmlns="http://www.w3.org/2000/svg">
<g clip-path="url(#clip0_7_207)">
<path d="M3.75 23.75C5.46022 22.7626 7.40021 22.2428 9.375 22.2428C11.3498 22.2428 13.2898 22.7626 15 23.75C16.7102 22.7626 18.6502 22.2428 20.625 22.2428C22.5998 22.2428 24.5398 22.7626 26.25 23.75" stroke="#F1F900" stroke-width="2" stroke-linecap="round" stroke-linejoin="round"/>
<path d="M3.75 7.50001C5.46022 6.51262 7.40021 5.9928 9.375 5.9928C11.3498 5.9928 13.2898 6.51262 15 7.50001C16.7102 6.51262 18.6502 5.9928 20.625 5.9928C22.5998 5.9928 24.5398 6.51262 26.25 7.50001" stroke="#F1F900" stroke-width="2" stroke-linecap="round" stroke-linejoin="round"/>
<path d="M3.75 7.5V23.75" stroke="#F1F900" stroke-width="2" stroke-linecap="round" stroke-linejoin="round"/>
<path d="M15 7.5V23.75" stroke="#F1F900" stroke-width="2" stroke-linecap="round" stroke-linejoin="round"/>
<path d="M26.25 7.5V23.75" stroke="#F1F900" stroke-width="2" stroke-linecap="round" stroke-linejoin="round"/>
</g>
<defs>
<clipPath id="clip0_7_207">
<rect width="30" height="30" fill="white"/>
</clipPath>
</defs>
</svg>
