<svg width="32" height="30" viewBox="0 0 32 30" fill="none" xmlns="http://www.w3.org/2000/svg">
<path d="M30.56 7.9406C30.3481 6.26895 29.5425 4.71274 28.2728 3.52239C27.003 2.33204 25.3431 1.57676 23.56 1.3781C18.5573 0.824975 13.5027 0.824975 8.5 1.3781C6.7169 1.57676 5.05695 2.33204 3.78724 3.52239C2.51753 4.71274 1.7119 6.26895 1.5 7.9406C0.909995 12.6306 0.909995 17.3694 1.5 22.0594C1.7119 23.731 2.51753 25.2872 3.78724 26.4776C5.05695 27.6679 6.7169 28.4232 8.5 28.6219C13.5027 29.175 18.5573 29.175 23.56 28.6219C25.3431 28.4232 27.003 27.6679 28.2728 26.4776C29.5425 25.2872 30.3481 23.731 30.56 22.0594C31.15 17.3694 31.15 12.6306 30.56 7.9406ZM21.87 15.4406L28.63 8.79373C29.0779 12.8454 29.0779 16.9296 28.63 20.9812L21.87 15.4406ZM8.7 3.20623C13.5506 2.68122 18.4494 2.68122 23.3 3.20623C24.3435 3.32258 25.3361 3.69384 26.1785 4.28285C27.0209 4.87186 27.6835 5.65796 28.1 6.56248L18.57 15.9375H13.43L3.9 6.56248C4.31649 5.65796 4.97909 4.87186 5.82147 4.28285C6.66385 3.69384 7.65648 3.32258 8.7 3.20623ZM3.34 21.0187C2.89207 16.9671 2.89207 12.8829 3.34 8.83123L10.1 15.4781L3.34 21.0187ZM23.34 26.8406C18.4894 27.3656 13.5906 27.3656 8.74 26.8406C7.63388 26.7183 6.58592 26.3097 5.71345 25.6606C4.84098 25.0116 4.17844 24.1477 3.8 23.1656L11.55 16.8094L12.32 17.5687C12.5059 17.7272 12.7487 17.8142 13 17.8125H19C19.1347 17.812 19.2679 17.786 19.3916 17.7361C19.5154 17.6861 19.627 17.6133 19.72 17.5219L20.49 16.7625L28.24 23.1187C27.8616 24.1008 27.199 24.9647 26.3265 25.6137C25.4541 26.2628 24.4061 26.6714 23.3 26.7937L23.34 26.8406Z" fill="white"/>
</svg>
