<svg width="32" height="32" viewBox="0 0 32 32" fill="none" xmlns="http://www.w3.org/2000/svg">
<path d="M16.0703 8.49585C14.0615 8.49585 12.1777 9.27669 10.7629 10.69C9.34806 12.1033 8.56641 13.9852 8.56641 15.9919C8.56641 17.9987 9.34806 19.8727 10.7629 21.2939C12.1777 22.7072 14.0693 23.488 16.0703 23.488C18.0792 23.488 19.963 22.7072 21.3778 21.2939C22.7926 19.8805 23.5742 17.9987 23.5742 15.9919C23.5742 13.9852 22.7926 12.1112 21.3778 10.69C19.963 9.27669 18.0792 8.49585 16.0703 8.49585ZM16.0703 22.2387C12.6076 22.2387 9.81706 19.4355 9.81706 15.9919C9.81706 12.5484 12.6076 9.7452 16.0703 9.7452C19.5331 9.7452 22.3236 12.5484 22.3236 15.9919C22.3236 19.4355 19.5331 22.2387 16.0703 22.2387Z" fill="#F1F900" stroke="#F1F900" stroke-linecap="round"/>
<path d="M29.1787 12.8688H27.9906C27.0214 12.8688 26.2084 12.0567 26.2084 11.0573C26.2084 10.5575 26.4195 10.1124 26.7947 9.77668L27.5607 9.02707C28.3189 8.27746 28.3189 7.05934 27.5607 6.30193L25.8176 4.57626C25.4737 4.23269 24.9656 4.02967 24.4497 4.02967C23.9338 4.02967 23.4336 4.23269 23.0818 4.57626L22.3471 5.31025C21.9953 5.70068 21.5107 5.9115 21.0026 5.9115C20.0021 5.9115 19.1501 5.09943 19.1501 4.13899V2.95992C19.1501 1.90578 18.3293 1 17.2741 1H14.8979C13.8192 1 12.9594 1.89797 12.9594 2.95992V4.1468C12.9594 5.10724 12.1308 5.91931 11.1303 5.91931C10.63 5.91931 10.1767 5.70848 9.83273 5.34149L9.07452 4.59188C8.73059 4.2405 8.22251 4.04529 7.70662 4.04529C7.19073 4.04529 6.69046 4.24831 6.33872 4.59188L4.59562 6.30973C3.84523 7.05934 3.84523 8.28527 4.59562 9.02707L5.33038 9.76106C5.72121 10.1124 5.94007 10.5575 5.94007 11.0651C5.94007 12.0645 5.12715 12.8766 4.1579 12.8766H2.96978C1.89891 12.8688 1 13.7434 1 14.8053V15.9922V17.1791C1 18.2332 1.89891 19.1156 2.96978 19.1156H4.1579C5.12715 19.1156 5.94007 19.9276 5.94007 20.9271C5.94007 21.4269 5.72121 21.8876 5.33038 22.2389L4.59562 22.9573C3.84523 23.7069 3.84523 24.925 4.59562 25.6746L6.33872 27.4081C6.68265 27.7595 7.19073 27.9547 7.70662 27.9547C8.22251 27.9547 8.72277 27.7517 9.07452 27.4081L9.83273 26.6585C10.161 26.2915 10.6222 26.0807 11.1225 26.0807C12.123 26.0807 12.9515 26.8928 12.9515 27.8532V29.0401C12.9515 30.0942 13.8114 31 14.8822 31H17.2585C18.3215 31 19.2048 30.102 19.2048 29.0401V27.8532C19.2048 26.8928 20.0255 26.0807 21.0261 26.0807C21.5263 26.0807 21.9875 26.2993 22.3471 26.6819L23.0818 27.4159C23.4336 27.7595 23.9338 27.9625 24.4497 27.9625C24.9656 27.9625 25.4659 27.7595 25.8176 27.4159L27.5607 25.6825C28.3111 24.9328 28.3111 23.7069 27.5607 22.9573L26.7947 22.2077C26.4195 21.8719 26.2084 21.3956 26.2084 20.9037C26.2084 19.9042 27.0214 19.0609 27.9906 19.0609H29.1787C30.2418 19.0609 31 18.2566 31 17.1947V15.9922V14.8053C31 13.7434 30.2418 12.8688 29.1787 12.8688ZM29.765 15.9922V17.1713C29.765 17.4992 29.5852 17.7881 29.1944 17.7881H28.0063C27.2011 17.7881 26.4351 18.1317 25.8567 18.7251C25.2861 19.3108 24.9734 20.0838 24.9734 20.8959C24.9734 21.7392 25.3174 22.52 25.9505 23.0979L26.6931 23.8319C26.951 24.0973 26.951 24.5346 26.6931 24.7923L24.95 26.5258C24.8249 26.6429 24.6451 26.7132 24.4575 26.7132C24.2699 26.7132 24.0823 26.6429 23.9651 26.5258L23.2538 25.8152C22.6519 25.1827 21.8624 24.8313 21.0261 24.8313C20.2131 24.8313 19.4627 25.1437 18.8765 25.7059C18.2824 26.2837 17.9698 27.0411 17.9698 27.8532V29.0401C17.9698 29.4227 17.6337 29.7507 17.2741 29.7507H14.8979C14.5383 29.7507 14.2178 29.4227 14.2178 29.0401V27.8532C14.2178 27.0489 13.8973 26.2837 13.3033 25.7059C12.717 25.1437 11.951 24.8313 11.1459 24.8313C10.3174 24.8313 9.52006 25.1827 8.94945 25.7996L8.22251 26.5258C8.09745 26.6429 7.91767 26.7132 7.73007 26.7132C7.54247 26.7132 7.35487 26.6507 7.25326 26.5414L7.24544 26.5336L7.23762 26.5258L5.49453 24.7923C5.23658 24.5346 5.23658 24.1052 5.49453 23.8397L6.20584 23.1369C6.8468 22.5435 7.19854 21.7548 7.19854 20.9115C7.19854 20.0994 6.88588 19.3576 6.31527 18.772C5.73684 18.1786 4.97082 17.874 4.16571 17.874H2.96978C2.57895 17.874 2.25065 17.5383 2.25065 17.1869V15.9922V14.8053C2.25065 14.4539 2.57895 14.1182 2.96978 14.1182H4.1579C4.963 14.1182 5.72903 13.8136 6.30745 13.2202C6.87806 12.6346 7.19072 11.8771 7.19072 11.0729C7.19072 10.2296 6.83898 9.44092 6.19802 8.85528L5.4789 8.14472C5.30693 7.97293 5.28348 7.77772 5.28348 7.6684C5.28348 7.56689 5.30693 7.36387 5.4789 7.19209L7.21417 5.46642C7.33924 5.3493 7.51902 5.27902 7.70662 5.27902C7.89422 5.27902 8.08181 5.34149 8.18343 5.45081L8.19125 5.45861L8.19906 5.46642L8.93382 6.20042C9.51225 6.82509 10.2939 7.16866 11.1303 7.16866C11.9432 7.16866 12.7014 6.85632 13.2877 6.29412C13.8817 5.71629 14.21 4.95888 14.21 4.1468V2.95992C14.21 2.5773 14.5227 2.24935 14.8744 2.24935H17.2585C17.6102 2.24935 17.8838 2.5773 17.8838 2.95992V4.1468C17.8838 4.95107 18.2277 5.71629 18.8218 6.29412C19.408 6.85632 20.1819 7.16866 20.9948 7.16866C21.839 7.16866 22.6363 6.81728 23.2303 6.1848L23.9416 5.47423C24.0667 5.35711 24.2465 5.28683 24.4341 5.28683C24.6217 5.28683 24.8093 5.35711 24.9265 5.46642L26.6696 7.19209C26.7947 7.31702 26.8729 7.48881 26.8729 7.6684C26.8729 7.848 26.8025 8.01978 26.6774 8.14472L25.9349 8.87871C25.3095 9.45653 24.9578 10.2374 24.9578 11.0807C24.9578 11.8928 25.2705 12.6346 25.8411 13.2202C26.4195 13.8136 27.1855 14.1182 27.9906 14.1182H29.1787C29.6008 14.1182 29.7572 14.5086 29.765 14.8209V15.9922Z" fill="#F1F900" stroke="#F1F900" stroke-linecap="round"/>
</svg>
