<svg width="30" height="30" viewBox="0 0 30 30" fill="none" xmlns="http://www.w3.org/2000/svg">
<g clip-path="url(#clip0_8_45)">
<path fill-rule="evenodd" clip-rule="evenodd" d="M11.25 21.5627C11.25 21.0445 11.6693 20.6252 12.1875 20.6252C12.7057 20.6252 13.125 21.0445 13.125 21.5627C13.125 22.0809 12.7057 22.5002 12.1875 22.5002C11.6693 22.5002 11.25 22.0809 11.25 21.5627ZM20.4684 28.9547C20.2185 29.0261 19.9603 29.0774 19.6875 29.0774C18.1338 29.0774 16.875 27.8186 16.875 26.2649V22.8554C16.875 21.678 17.6307 20.6783 18.6795 20.3102C20.6932 19.6337 22.5 17.9345 22.5 15.9377V14.0625C22.5 13.174 22.1374 12.3466 21.5625 11.6387V9.52148C21.5625 8.48625 20.723 8.1317 19.6875 8.7307L18.251 9.56133C17.791 9.44209 17.3263 9.375 16.875 9.375H13.125C12.6739 9.375 12.209 9.44209 11.749 9.56133L10.3125 8.7307C9.27727 8.1317 8.4375 8.48625 8.4375 9.52148V11.6387C7.86258 12.3466 7.5 13.174 7.5 14.0625V15.9377C7.5 17.3019 8.34891 18.5269 9.52605 19.3838L9.52488 19.3856C9.76934 19.5531 9.93182 19.836 9.93182 20.1564C9.93182 20.6737 9.51135 21.0939 8.99432 21.0939C8.72947 21.0939 8.49193 20.9831 8.32166 20.8065C6.73852 19.6072 5.625 17.8731 5.625 15.9377V14.0625C5.625 12.9772 5.97727 11.9545 6.5625 11.0522V8.26125C6.5625 6.19078 8.24092 5.48168 10.3125 6.67945L11.9215 7.61033C12.3228 7.54213 12.7249 7.5 13.125 7.5H16.875C17.2751 7.5 17.677 7.54213 18.0785 7.61033L19.6875 6.67945C21.7593 5.48174 23.4375 6.19078 23.4375 8.26125V11.0522C24.0225 11.9545 24.375 12.9772 24.375 14.0625V15.9377C24.375 18.7273 22.0752 21.1022 19.3634 22.0525C19.3602 22.0553 19.357 22.0626 19.3524 22.0635C18.9999 22.199 18.75 22.5396 18.75 22.9397V26.2649C18.75 26.7831 19.1693 27.2024 19.6875 27.2024C19.7658 27.2024 19.8376 27.1804 19.91 27.1621C24.7247 25.2193 28.125 20.5117 28.125 15C28.125 7.75107 22.2492 1.875 15 1.875C7.75107 1.875 1.875 7.75107 1.875 15C1.875 20.7076 5.5227 25.5507 10.6126 27.3571C10.6386 27.3599 10.6625 27.3708 10.6897 27.3708C10.9989 27.3708 11.2499 27.1191 11.2499 26.8106C11.2499 26.5011 10.9989 26.2503 10.6897 26.2503C10.683 26.2503 10.683 26.2448 10.6785 26.242C7.56363 26.1587 7.56018 22.5003 6.5625 22.5003C6.0443 22.5003 5.625 22.081 5.625 21.5628C5.625 21.0446 6.0443 20.6253 6.5625 20.6253C6.66141 20.6253 6.809 20.6253 7.03055 20.6253C8.90672 20.6253 8.63865 24.3753 11.25 24.3753C12.2852 24.3753 13.125 25.2148 13.125 26.2503V27.8909C13.125 28.7964 12.391 29.5315 11.4841 29.5315C11.3852 29.5315 11.2921 29.5114 11.1978 29.4931C4.75799 27.8094 0 21.9683 0 15C0 6.71584 6.71584 0 15 0C23.2842 0 30 6.71584 30 15C30 21.3521 26.0454 26.7684 20.4684 28.9547Z" fill="white"/>
</g>
<defs>
<clipPath id="clip0_8_45">
<rect width="30" height="30" fill="white"/>
</clipPath>
</defs>
</svg>
