<svg width="30" height="30" viewBox="0 0 30 30" fill="none" xmlns="http://www.w3.org/2000/svg">
<g clip-path="url(#clip0_8_41)">
<path d="M25.5613 25.5617H21.1162V18.6004C21.1162 16.9405 21.0866 14.8035 18.8044 14.8035C16.4892 14.8035 16.135 16.6122 16.135 18.4796V25.5612H11.69V11.2461H15.9572V13.2024H16.0169C16.444 12.4722 17.0611 11.8715 17.8025 11.4643C18.5439 11.0571 19.3819 10.8586 20.2273 10.89C24.7325 10.89 25.5632 13.8534 25.5632 17.7086L25.5613 25.5617ZM6.67441 9.2894C5.24976 9.28964 4.09464 8.13487 4.09441 6.71023C4.09417 5.28558 5.24882 4.13046 6.67347 4.13023C8.09812 4.12987 9.25324 5.28464 9.25347 6.70929C9.2536 7.39343 8.98195 8.04961 8.49828 8.53347C8.01462 9.01733 7.35855 9.28925 6.67441 9.2894ZM8.89699 25.5618H4.44726V11.2461H8.89687V25.5617L8.89699 25.5618ZM27.7773 0.00206135H2.21367C1.00546 -0.0115324 0.0146436 0.956319 -0.00012207 2.16452V27.8348C0.0141748 29.0436 1.00488 30.0124 2.21355 29.9997H27.7773C28.9886 30.0147 29.9831 29.0459 29.9999 27.8348V2.16253C29.9827 0.951983 28.988 -0.0157511 27.7773 6.91671e-05" fill="white"/>
</g>
<defs>
<clipPath id="clip0_8_41">
<rect width="30" height="30" fill="white"/>
</clipPath>
</defs>
</svg>
